<?xml version="1.0" encoding="UTF-8"?>
<svg xmlns="http://www.w3.org/2000/svg" width="2400" height="1650" viewBox="0 0 2400 1650">
  <defs>
    <style>
      .bg { fill: #fbfcff; }
      .title { font: 800 34px Arial, "Noto Sans KR", sans-serif; fill: #111827; }
      .subtitle { font: 500 16px Arial, "Noto Sans KR", sans-serif; fill: #4b5563; }
      .lane-title { font: 800 19px Arial, "Noto Sans KR", sans-serif; fill: #111827; }
      .label { font: 700 15px Arial, "Noto Sans KR", sans-serif; fill: #111827; }
      .small { font: 500 12px Arial, "Noto Sans KR", sans-serif; fill: #374151; }
      .tiny { font: 500 11px Arial, "Noto Sans KR", sans-serif; fill: #4b5563; }
      .code { font: 600 11px "Cascadia Mono", Consolas, monospace; fill: #374151; }
      .done { fill: #ecfdf5; stroke: #16a34a; }
      .partial { fill: #fffbeb; stroke: #f59e0b; }
      .missing { fill: #fff1f2; stroke: #ef4444; }
      .neutral { fill: #f8fafc; stroke: #94a3b8; }
      .lane-blue { fill: #eff6ff; stroke: #93c5fd; }
      .lane-green { fill: #f0fdf4; stroke: #86efac; }
      .lane-yellow { fill: #fffbeb; stroke: #fcd34d; }
      .lane-purple { fill: #faf5ff; stroke: #c084fc; }
      .lane-red { fill: #fff1f2; stroke: #fca5a5; }
      .box { stroke-width: 2; rx: 10; }
      .lane { stroke-width: 2; rx: 12; }
      .arrow { stroke: #111827; stroke-width: 2.2; fill: none; marker-end: url(#arrow); }
      .dash { stroke: #64748b; stroke-width: 2; stroke-dasharray: 7 6; fill: none; marker-end: url(#arrow-gray); }
      .thin { stroke: #cbd5e1; stroke-width: 1.4; }
      .status { font: 800 12px Arial, "Noto Sans KR", sans-serif; }
    </style>
    <marker id="arrow" markerWidth="12" markerHeight="12" refX="10" refY="6" orient="auto">
      <path d="M2,2 L10,6 L2,10 Z" fill="#111827"/>
    </marker>
    <marker id="arrow-gray" markerWidth="12" markerHeight="12" refX="10" refY="6" orient="auto">
      <path d="M2,2 L10,6 L2,10 Z" fill="#64748b"/>
    </marker>
  </defs>

  <rect class="bg" x="0" y="0" width="2400" height="1650"/>
  <text class="title" x="36" y="56">Deepen 전체 서비스 플로우차트 - 구현 상태 반영 버전</text>
  <text class="subtitle" x="36" y="86">코드베이스 확인 기준: 구현됨 / 부분 구현 / 미구현 또는 운영형 아님</text>

  <g transform="translate(1620 34)">
    <rect class="box done" x="0" y="0" width="128" height="34"/>
    <text class="status" x="22" y="22" fill="#15803d">구현됨</text>
    <rect class="box partial" x="146" y="0" width="150" height="34"/>
    <text class="status" x="166" y="22" fill="#b45309">부분 구현</text>
    <rect class="box missing" x="314" y="0" width="176" height="34"/>
    <text class="status" x="334" y="22" fill="#be123c">미구현/운영형 아님</text>
    <rect class="box neutral" x="510" y="0" width="120" height="34"/>
    <text class="status" x="535" y="22" fill="#475569">외부/기반</text>
  </g>

  <!-- Lane 1 -->
  <rect class="lane lane-blue" x="28" y="120" width="170" height="145"/>
  <text class="lane-title" x="58" y="175">1. 진입</text>
  <text class="lane-title" x="58" y="204">&amp; 인증</text>

  <g transform="translate(240 130)">
    <rect class="box done" x="0" y="0" width="150" height="62"/>
    <text class="label" x="36" y="27">서착</text>
    <text class="small" x="31" y="47">사용자 접속</text>
    <path class="arrow" d="M150 31 H190"/>
    <rect class="box done" x="190" y="0" width="160" height="62"/>
    <text class="label" x="225" y="27">landing-v2</text>
    <text class="small" x="222" y="47">마케팅 페이지</text>
    <path class="arrow" d="M350 31 H390"/>
    <rect class="box done" x="390" y="0" width="150" height="62"/>
    <text class="label" x="430" y="27">/login</text>
    <text class="small" x="415" y="47">매직링크 폼</text>
    <path class="arrow" d="M540 31 H580"/>
    <rect class="box done" x="580" y="0" width="160" height="62"/>
    <text class="label" x="625" y="27">OTP 발송</text>
    <text class="small" x="617" y="47">Supabase Auth</text>
    <path class="arrow" d="M740 31 H780"/>
    <rect class="box done" x="780" y="0" width="180" height="62"/>
    <text class="label" x="820" y="27">/auth/callback</text>
    <text class="small" x="820" y="47">세션 교환</text>
    <path class="arrow" d="M960 31 H1000"/>
    <rect class="box done" x="1000" y="0" width="170" height="62"/>
    <text class="label" x="1044" y="27">세션 유지</text>
    <text class="small" x="1040" y="47">proxy.ts</text>
    <path class="arrow" d="M1170 31 H1210"/>
    <rect class="box done" x="1210" y="0" width="140" height="62"/>
    <text class="label" x="1254" y="27">/graph</text>
    <text class="small" x="1240" y="47">메인 진입</text>
  </g>

  <!-- Lane 2 -->
  <rect class="lane lane-green" x="28" y="295" width="170" height="205"/>
  <text class="lane-title" x="52" y="365">2. PDF 업로드</text>
  <text class="lane-title" x="52" y="394">&amp; 파이프라인</text>

  <g transform="translate(240 305)">
    <rect class="box done" x="0" y="0" width="155" height="58"/>
    <text class="label" x="45" y="25">/upload</text>
    <text class="small" x="35" y="44">Dropzone UI</text>
    <path class="arrow" d="M155 29 H195"/>
    <rect class="box done" x="195" y="0" width="160" height="58"/>
    <text class="label" x="224" y="25">파일 검증</text>
    <text class="small" x="221" y="44">PDF, 30MB</text>
    <path class="arrow" d="M355 29 H395"/>
    <rect class="box done" x="395" y="0" width="190" height="58"/>
    <text class="label" x="420" y="25">/api/documents/upload</text>
    <text class="small" x="467" y="44">POST</text>
    <path class="arrow" d="M585 29 H625"/>
    <rect class="box done" x="625" y="0" width="180" height="58"/>
    <text class="label" x="664" y="25">Storage 업로드</text>
    <text class="small" x="688" y="44">PDF 저장</text>
    <path class="arrow" d="M805 29 H845"/>
    <rect class="box done" x="845" y="0" width="185" height="58"/>
    <text class="label" x="884" y="25">documents 생성</text>
    <text class="small" x="880" y="44">status: uploaded</text>
    <path class="arrow" d="M1030 29 H1070"/>
    <rect class="box done" x="1070" y="0" width="155" height="58"/>
    <text class="label" x="1106" y="25">응답 202</text>
    <text class="small" x="1102" y="44">즉시 반환</text>

    <path class="dash" d="M505 58 V92 H610"/>
    <rect class="box partial" x="610" y="82" width="175" height="50"/>
    <text class="label" x="652" y="104">after() 훅</text>
    <text class="tiny" x="638" y="122">명시적 큐는 없음</text>
    <path class="arrow" d="M785 107 H835"/>
    <rect class="box done" x="835" y="82" width="150" height="50"/>
    <text class="label" x="878" y="104">parsing</text>
    <text class="tiny" x="869" y="122">unpdf</text>
    <path class="arrow" d="M985 107 H1035"/>
    <rect class="box done" x="1035" y="82" width="170" height="50"/>
    <text class="label" x="1075" y="104">섹션 묶기</text>
    <text class="tiny" x="1076" y="122">groupSections</text>
    <path class="arrow" d="M1205 107 H1255"/>
    <rect class="box done" x="1255" y="82" width="165" height="50"/>
    <text class="label" x="1300" y="104">extracting</text>
    <text class="tiny" x="1296" y="122">LLM 추출</text>
    <path class="arrow" d="M1420 107 H1470"/>
    <rect class="box done" x="1470" y="82" width="155" height="50"/>
    <text class="label" x="1516" y="104">ready</text>
    <text class="tiny" x="1496" y="122">nodes/edges 저장</text>

    <rect class="box done" x="610" y="150" width="160" height="46"/>
    <text class="label" x="652" y="172">DB 저장</text>
    <text class="tiny" x="638" y="190">chunks/mappings</text>
    <path class="arrow" d="M770 173 H820"/>
    <rect class="box done" x="820" y="150" width="170" height="46"/>
    <text class="label" x="858" y="172">토큰 기록</text>
    <text class="tiny" x="856" y="190">token_usage</text>
    <path class="arrow" d="M990 173 H1040"/>
    <rect class="box done" x="1040" y="150" width="175" height="46"/>
    <text class="label" x="1082" y="172">중복 제거</text>
    <text class="tiny" x="1067" y="190">Levenshtein</text>
    <path class="arrow" d="M1215 173 H1265"/>
    <rect class="box done" x="1265" y="150" width="170" height="46"/>
    <text class="label" x="1303" y="172">노이즈 제거</text>
    <text class="tiny" x="1300" y="190">regex filter</text>
    <path class="arrow" d="M1435 173 H1485"/>
    <rect class="box partial" x="1485" y="150" width="185" height="46"/>
    <text class="label" x="1525" y="172">재시도/복구</text>
    <text class="tiny" x="1520" y="190">step job 없음</text>
  </g>

  <!-- Lane 3 -->
  <rect class="lane lane-yellow" x="28" y="530" width="170" height="180"/>
  <text class="lane-title" x="58" y="592">3. 그래프 탐색</text>
  <text class="lane-title" x="58" y="621">(3D/필터)</text>

  <g transform="translate(240 540)">
    <rect class="box done" x="0" y="0" width="145" height="58"/>
    <text class="label" x="48" y="25">/graph</text>
    <text class="small" x="33" y="44">메인 페이지</text>
    <path class="arrow" d="M145 29 H185"/>
    <rect class="box done" x="185" y="0" width="185" height="58"/>
    <text class="label" x="220" y="25">/api/graph/current</text>
    <text class="small" x="260" y="44">GET</text>
    <path class="arrow" d="M370 29 H410"/>
    <rect class="box done" x="410" y="0" width="175" height="58"/>
    <text class="label" x="455" y="25">mappers</text>
    <text class="small" x="446" y="44">nodes + edges</text>
    <path class="arrow" d="M585 29 H625"/>
    <rect class="box done" x="625" y="0" width="165" height="58"/>
    <text class="label" x="660" y="25">Zustand Store</text>
    <text class="small" x="657" y="44">graphStore</text>
    <path class="arrow" d="M790 29 H830"/>
    <rect class="box done" x="830" y="0" width="180" height="58"/>
    <text class="label" x="870" y="25">Reagraph Canvas</text>
    <text class="small" x="881" y="44">2D/3D 레이아웃</text>
    <path class="arrow" d="M1010 29 H1050"/>
    <rect class="box done" x="1050" y="0" width="170" height="58"/>
    <text class="label" x="1090" y="25">우측 패널</text>
    <text class="small" x="1078" y="44">Doc/Graph/Note/Chat</text>
    <path class="arrow" d="M1220 29 H1260"/>
    <rect class="box done" x="1260" y="0" width="160" height="58"/>
    <text class="label" x="1302" y="25">필터/검색</text>
    <text class="small" x="1292" y="44">상태 업데이트</text>

    <path class="arrow" d="M1420 29 H1460"/>
    <rect class="box done" x="1460" y="-35" width="190" height="45"/>
    <text class="label" x="1510" y="-10">노드 출처</text>
    <text class="code" x="1495" y="7">/api/nodes/{id}/sources</text>
    <rect class="box done" x="1460" y="22" width="190" height="45"/>
    <text class="label" x="1504" y="47">로드맵 오버레이</text>
    <text class="tiny" x="1508" y="64">find_path 연동</text>
    <rect class="box partial" x="1460" y="79" width="190" height="45"/>
    <text class="label" x="1518" y="104">내보내기</text>
    <text class="tiny" x="1501" y="121">Markdown OK / 이미지 없음</text>

    <rect class="box partial" x="625" y="93" width="210" height="50"/>
    <text class="label" x="672" y="115">검색/추천</text>
    <text class="tiny" x="660" y="133">클라이언트 in-memory 중심</text>
    <path class="dash" d="M730 93 V63"/>
    <rect class="box partial" x="875" y="93" width="230" height="50"/>
    <text class="label" x="930" y="115">서버 검색 인덱스</text>
    <text class="tiny" x="922" y="133">vector/ranking 미구현</text>
  </g>

  <!-- Lane 4 -->
  <rect class="lane lane-blue" x="28" y="740" width="170" height="150"/>
  <text class="lane-title" x="50" y="798">4. 화이트보드 뷰</text>
  <text class="lane-title" x="72" y="827">(xyflow)</text>

  <g transform="translate(240 750)">
    <rect class="box partial" x="0" y="0" width="180" height="58"/>
    <text class="label" x="32" y="25">/graph/whiteboard</text>
    <text class="small" x="43" y="44">화이트보드 화면</text>
    <path class="arrow" d="M180 29 H220"/>
    <rect class="box partial" x="220" y="0" width="180" height="58"/>
    <text class="label" x="270" y="25">whiteboardStore</text>
    <text class="small" x="264" y="44">localStorage</text>
    <path class="arrow" d="M400 29 H440"/>
    <rect class="box partial" x="440" y="0" width="170" height="58"/>
    <text class="label" x="486" y="25">xyflow 캔버스</text>
    <text class="small" x="482" y="44">drag / group</text>
    <path class="arrow" d="M610 29 H650"/>
    <rect class="box partial" x="650" y="0" width="180" height="58"/>
    <text class="label" x="693" y="25">노드/엣지 편집</text>
    <text class="small" x="694" y="44">일부 DB 반영</text>
    <path class="arrow" d="M830 29 H870"/>
    <rect class="box missing" x="870" y="0" width="210" height="58"/>
    <text class="label" x="915" y="25">변경사항 저장</text>
    <text class="small" x="905" y="44">위치/그룹 완전 영속화 미흡</text>
    <path class="dash" d="M310 58 V92 H548 V58"/>
    <rect class="box partial" x="1130" y="0" width="220" height="58"/>
    <text class="label" x="1170" y="25">실제 그래프 동기화</text>
    <text class="small" x="1168" y="44">직접 진입 시 sample data</text>
  </g>

  <!-- Lane 5 -->
  <rect class="lane lane-green" x="28" y="920" width="170" height="160"/>
  <text class="lane-title" x="58" y="982">5. 문서 관리</text>

  <g transform="translate(240 930)">
    <rect class="box done" x="0" y="0" width="155" height="58"/>
    <text class="label" x="42" y="25">/documents</text>
    <text class="small" x="38" y="44">문서 목록 UI</text>
    <path class="arrow" d="M155 29 H195"/>
    <rect class="box done" x="195" y="0" width="160" height="58"/>
    <text class="label" x="230" y="25">/api/documents</text>
    <text class="small" x="260" y="44">GET</text>
    <path class="arrow" d="M355 29 H395"/>
    <rect class="box done" x="395" y="0" width="190" height="58"/>
    <text class="label" x="430" y="25">/api/documents/{id}</text>
    <text class="small" x="476" y="44">GET</text>
    <path class="arrow" d="M585 29 H625"/>
    <rect class="box partial" x="625" y="0" width="210" height="58"/>
    <text class="label" x="670" y="25">문서 상세</text>
    <text class="small" x="660" y="44">chunks 전체 브라우징 제한적</text>
    <path class="arrow" d="M835 29 H875"/>
    <rect class="box done" x="875" y="0" width="195" height="58"/>
    <text class="label" x="910" y="25">/api/documents/{id}</text>
    <text class="small" x="953" y="44">DELETE</text>
    <path class="arrow" d="M1070 29 H1110"/>
    <rect class="box done" x="1110" y="0" width="190" height="58"/>
    <text class="label" x="1148" y="25">orphan node 정리</text>
    <text class="small" x="1150" y="44">cascade 삭제</text>
    <path class="arrow" d="M1300 29 H1340"/>
    <rect class="box done" x="1340" y="0" width="190" height="58"/>
    <text class="label" x="1378" y="25">Storage PDF 삭제</text>
    <text class="small" x="1383" y="44">documents 정리</text>
  </g>

  <!-- Lane 6 -->
  <rect class="lane lane-purple" x="28" y="1110" width="170" height="160"/>
  <text class="lane-title" x="58" y="1168">6. 검색</text>
  <text class="lane-title" x="48" y="1197">&amp; 프리셋 로드맵</text>

  <g transform="translate(240 1120)">
    <rect class="box partial" x="0" y="0" width="150" height="58"/>
    <text class="label" x="48" y="25">/search</text>
    <text class="small" x="35" y="44">검색 페이지</text>
    <path class="arrow" d="M150 29 H190"/>
    <rect class="box partial" x="190" y="0" width="190" height="58"/>
    <text class="label" x="235" y="25">그래프 In-Memory</text>
    <text class="small" x="232" y="44">label/tldr/content</text>
    <path class="arrow" d="M380 29 H420"/>
    <rect class="box partial" x="420" y="0" width="170" height="58"/>
    <text class="label" x="458" y="25">추천 Top N</text>
    <text class="small" x="452" y="44">citations/degree</text>
    <path class="arrow" d="M590 29 H630"/>
    <rect class="box partial" x="630" y="0" width="190" height="58"/>
    <text class="label" x="668" y="25">프리셋 로드맵</text>
    <text class="small" x="672" y="44">클라이언트 preset</text>
    <path class="arrow" d="M820 29 H860"/>
    <rect class="box partial" x="860" y="0" width="175" height="58"/>
    <text class="label" x="900" y="25">/graph?roadmap</text>
    <text class="small" x="888" y="44">agent prompt 전달</text>
    <path class="arrow" d="M1035 29 H1075"/>
    <rect class="box missing" x="1075" y="0" width="230" height="58"/>
    <text class="label" x="1122" y="25">서버 검색/랭킹</text>
    <text class="small" x="1110" y="44">embedding/vector 미구현</text>
  </g>

  <!-- Lane 7 -->
  <rect class="lane lane-red" x="28" y="1300" width="170" height="180"/>
  <text class="lane-title" x="54" y="1364">7. Agent Chat</text>
  <text class="lane-title" x="62" y="1393">&amp; 승인 흐름</text>

  <g transform="translate(240 1310)">
    <rect class="box done" x="0" y="0" width="155" height="58"/>
    <text class="label" x="44" y="25">Chat Panel</text>
    <text class="small" x="43" y="44">사용자 질문</text>
    <path class="arrow" d="M155 29 H195"/>
    <rect class="box done" x="195" y="0" width="170" height="58"/>
    <text class="label" x="230" y="25">/api/agent/chat</text>
    <text class="small" x="250" y="44">SSE streaming</text>
    <path class="arrow" d="M365 29 H405"/>
    <rect class="box done" x="405" y="0" width="190" height="58"/>
    <text class="label" x="448" y="25">runAgent</text>
    <text class="small" x="434" y="44">LLM + tool loop</text>
    <path class="arrow" d="M595 29 H635"/>
    <rect class="box done" x="635" y="0" width="210" height="58"/>
    <text class="label" x="680" y="25">Tool 실행</text>
    <text class="small" x="660" y="44">query/find/extract/search</text>
    <path class="arrow" d="M845 29 H885"/>
    <rect class="box done" x="885" y="0" width="190" height="58"/>
    <text class="label" x="927" y="25">결과 반영</text>
    <text class="small" x="915" y="44">응답 + history</text>

    <path class="dash" d="M740 58 V92 H805"/>
    <rect class="box partial" x="805" y="86" width="185" height="52"/>
    <text class="label" x="855" y="108">승인 요청</text>
    <text class="small" x="838" y="127">ApprovalCard</text>
    <path class="arrow" d="M990 112 H1030"/>
    <rect class="box partial" x="1030" y="86" width="190" height="52"/>
    <text class="label" x="1070" y="108">/api/agent/approve</text>
    <text class="small" x="1087" y="127">in-memory Map</text>
    <path class="arrow" d="M1220 112 H1260"/>
    <rect class="box done" x="1260" y="86" width="170" height="52"/>
    <text class="label" x="1298" y="108">DB mutation</text>
    <text class="small" x="1300" y="127">add_node/edge</text>
    <rect class="box missing" x="1480" y="86" width="230" height="52"/>
    <text class="label" x="1525" y="108">승인 영속화</text>
    <text class="small" x="1512" y="127">DB/Redis queue 미구현</text>

    <rect class="box partial" x="1125" y="0" width="220" height="58"/>
    <text class="label" x="1168" y="25">비용/권한 제어</text>
    <text class="small" x="1160" y="44">token_usage 기록만 존재</text>
  </g>

  <!-- Bottom infrastructure -->
  <g transform="translate(28 1515)">
    <rect class="lane neutral" x="0" y="0" width="730" height="105"/>
    <text class="lane-title" x="22" y="32">외부 서비스</text>
    <text class="label" x="38" y="70">Supabase</text>
    <text class="tiny" x="38" y="88">Auth / DB / Storage / Realtime</text>
    <text class="label" x="210" y="70">OpenAI</text>
    <text class="tiny" x="210" y="88">LLM / extraction / agent</text>
    <text class="label" x="350" y="70">Anthropic</text>
    <text class="tiny" x="350" y="88">client 존재</text>
    <text class="label" x="490" y="70">OpenAlex</text>
    <text class="tiny" x="490" y="88">paper search</text>
    <text class="label" x="620" y="70">Vercel</text>
    <text class="tiny" x="620" y="88">Next runtime</text>

    <rect class="lane neutral" x="780" y="0" width="880" height="105"/>
    <text class="lane-title" x="802" y="32">데이터 모델</text>
    <rect class="box done" x="820" y="54" width="95" height="34"/>
    <text class="small" x="848" y="76">users</text>
    <path class="arrow" d="M915 71 H945"/>
    <rect class="box done" x="945" y="54" width="105" height="34"/>
    <text class="small" x="972" y="76">sessions</text>
    <path class="arrow" d="M1050 71 H1080"/>
    <rect class="box done" x="1080" y="54" width="120" height="34"/>
    <text class="small" x="1112" y="76">documents</text>
    <path class="arrow" d="M1200 71 H1230"/>
    <rect class="box done" x="1230" y="54" width="100" height="34"/>
    <text class="small" x="1260" y="76">chunks</text>
    <path class="arrow" d="M1330 71 H1360"/>
    <rect class="box done" x="1360" y="54" width="95" height="34"/>
    <text class="small" x="1390" y="76">nodes</text>
    <path class="arrow" d="M1455 71 H1485"/>
    <rect class="box done" x="1485" y="54" width="95" height="34"/>
    <text class="small" x="1517" y="76">edges</text>
    <rect class="box done" x="1190" y="8" width="185" height="34"/>
    <text class="small" x="1225" y="30">chunk_node_mappings</text>
    <rect class="box done" x="1410" y="8" width="140" height="34"/>
    <text class="small" x="1440" y="30">token_usage</text>

    <rect class="lane neutral" x="1710" y="0" width="620" height="105"/>
    <text class="lane-title" x="1732" y="32">검증 결과</text>
    <text class="label" x="1750" y="68">TypeScript</text>
    <text class="tiny" x="1750" y="88">npx tsc --noEmit 통과</text>
    <text class="label" x="1960" y="68">ESLint</text>
    <text class="tiny" x="1960" y="88">0 errors / 8 warnings</text>
    <text class="label" x="2160" y="68">주의</text>
    <text class="tiny" x="2160" y="88">한글 문자열 일부 인코딩 깨짐</text>
  </g>
</svg>
